<svg height="512pt" viewBox="0 0 512.0014 512" width="512pt" xmlns="http://www.w3.org/2000/svg"><path d="m511.492188 426.445312c-.050782-6.984374-4.914063-13.011718-11.730469-14.535156l-81.882813-18.273437-13.769531-13.667969 22.949219-22.777344c2.867187-2.84375 4.464844-6.722656 4.433594-10.757812-.027344-4.039063-1.683594-7.894532-4.589844-10.695313l-44.648438-43.046875c-5.871094-5.660156-15.1875-5.59375-20.976562.152344l-22.476563 22.308594-21.699219-21.535156 21.738282-21.578126c2.886718-2.863281 4.484375-6.773437 4.433594-10.839843-.050782-4.0625-1.75-7.933594-4.703126-10.722657l-51.480468-48.574218c21.621094-54.375 8.90625-116.925782-33.238282-158.753906-57.964843-57.527344-152.28125-57.53125-210.25 0-28.117187 27.90625-43.601562 65.015624-43.601562 104.496093s15.484375 76.589844 43.601562 104.496094c37.492188 37.207031 108.777344 42.402344 130.433594 43.113281l219.488282 212.523438c2.796874 2.710937 6.539062 4.222656 10.433593 4.222656h93.042969c3.996094 0 7.828125-1.59375 10.644531-4.429688 2.816407-2.835937 4.382813-6.679687 4.355469-10.679687zm-347.644532-263.777343c-9.460937 9.386719-21.886718 14.078125-34.3125 14.078125-12.425781 0-24.851562-4.691406-34.3125-14.078125-9.191406-9.125-14.253906-21.277344-14.253906-34.21875 0-12.941407 5.0625-25.089844 14.253906-34.214844 18.917969-18.773437 49.703125-18.777344 68.625 0 9.191406 9.125 14.253906 21.277344 14.253906 34.21875 0 12.9375-5.0625 25.089844-14.253906 34.214844zm0 0" fill="#ffdd82"/><path d="m253.851562 43.148438c-57.964843-57.527344-152.285156-57.53125-210.25 0-.164062.164062-.324218.332031-.488281.496093l51.363281 51.371094c.25-.261719.492188-.527344.75-.78125 18.917969-18.773437 49.703126-18.777344 68.621094 0 9.191406 9.125 14.253906 21.277344 14.253906 34.21875s-5.0625 25.089844-14.253906 34.214844c-.289062.289062-.59375.558593-.886718.835937l344.332031 344.390625c.113281-.113281.238281-.210937.351562-.324219 2.816407-2.835937 4.386719-6.679687 4.355469-10.679687l-.507812-70.445313c-.050782-6.984374-4.914063-13.011718-11.730469-14.535156l-81.878907-18.273437-13.773437-13.667969 22.949219-22.777344c2.867187-2.84375 4.464844-6.722656 4.433594-10.757812-.027344-4.039063-1.683594-7.890625-4.589844-10.695313l-44.648438-43.046875c-5.871094-5.660156-15.1875-5.589844-20.976562.152344l-22.476563 22.308594-21.699219-21.535156 21.738282-21.578126c2.886718-2.863281 4.484375-6.773437 4.433594-10.835937-.050782-4.066406-1.75-7.933594-4.703126-10.722656l-51.480468-48.578125c21.621094-54.371094 8.90625-116.925782-33.238282-158.753906zm0 0" fill="#ffae47"/></svg>